# Blender v2.92.0 OBJ File: 'MuzzleFlash1.blend'
# www.blender.org
mtllib MuzzleFlash1.mtl
o MuzzleCone_Circle.001
v 0.000001 -3.203938 0.999999
v 0.000000 -0.184784 -0.000000
v 1.226095 -2.960053 0.999998
v 0.070714 -0.170718 -0.000000
v 2.265527 -2.265527 0.999997
v 0.130662 -0.130662 -0.000000
v 2.960053 -1.226094 0.999997
v 0.170718 -0.070714 -0.000000
v 3.203939 -0.000000 0.999997
v 0.184784 0.000000 -0.000000
v 2.960053 1.226094 0.999997
v 0.170718 0.070714 -0.000000
v 2.265527 2.265526 0.999999
v 0.130662 0.130662 -0.000000
v 1.226095 2.960052 1.000000
v 0.070714 0.170718 0.000000
v 0.000001 3.203938 1.000001
v 0.000000 0.184784 0.000000
v -1.226092 2.960053 1.000002
v -0.070714 0.170718 0.000000
v -2.265525 2.265527 1.000003
v -0.130662 0.130662 0.000000
v -2.960052 1.226094 1.000003
v -0.170718 0.070714 0.000000
v -3.203937 -0.000000 1.000003
v -0.184784 0.000000 0.000000
v -2.960052 -1.226095 1.000003
v -0.170718 -0.070714 0.000000
v -2.265525 -2.265527 1.000001
v -0.130662 -0.130662 0.000000
v -1.226092 -2.960054 1.000000
v -0.070714 -0.170718 0.000000
vt 0.000000 1.000000
vt 0.000000 0.000000
vt 0.062500 0.000000
vt 0.062500 1.000000
vt 0.125000 0.000000
vt 0.125000 1.000000
vt 0.187500 0.000000
vt 0.187500 1.000000
vt 0.250000 0.000000
vt 0.250000 1.000000
vt 0.312500 0.000000
vt 0.312500 1.000000
vt 0.375000 0.000000
vt 0.375000 1.000000
vt 0.437500 0.000000
vt 0.437500 1.000000
vt 0.500000 0.000000
vt 0.500000 1.000000
vt 0.562500 0.000000
vt 0.562500 1.000000
vt 0.625000 0.000000
vt 0.625000 1.000000
vt 0.687500 0.000000
vt 0.687500 1.000000
vt 0.750000 0.000000
vt 0.750000 1.000000
vt 0.812500 0.000000
vt 0.812500 1.000000
vt 0.875000 0.000000
vt 0.875000 1.000000
vt 0.937500 0.000000
vt 0.937500 1.000000
vt 1.000000 0.000000
vt 1.000000 1.000000
vn 0.0000 -0.3144 -0.9493
vn 0.1203 -0.2905 -0.9493
vn 0.2223 -0.2223 -0.9493
vn 0.2905 -0.1203 -0.9493
vn 0.3144 0.0000 -0.9493
vn 0.2905 0.1203 -0.9493
vn 0.2223 0.2223 -0.9493
vn 0.1203 0.2905 -0.9493
vn 0.0000 0.3144 -0.9493
vn -0.1203 0.2905 -0.9493
vn -0.2223 0.2223 -0.9493
vn -0.2905 0.1203 -0.9493
vn -0.3144 0.0000 -0.9493
vn -0.2905 -0.1203 -0.9493
vn -0.2223 -0.2223 -0.9493
vn -0.1203 -0.2905 -0.9493
usemtl (null)
s 1
f 1/1/1 2/2/1 4/3/2 3/4/2
f 3/4/2 4/3/2 6/5/3 5/6/3
f 5/6/3 6/5/3 8/7/4 7/8/4
f 7/8/4 8/7/4 10/9/5 9/10/5
f 9/10/5 10/9/5 12/11/6 11/12/6
f 11/12/6 12/11/6 14/13/7 13/14/7
f 13/14/7 14/13/7 16/15/8 15/16/8
f 15/16/8 16/15/8 18/17/9 17/18/9
f 17/18/9 18/17/9 20/19/10 19/20/10
f 19/20/10 20/19/10 22/21/11 21/22/11
f 21/22/11 22/21/11 24/23/12 23/24/12
f 23/24/12 24/23/12 26/25/13 25/26/13
f 25/26/13 26/25/13 28/27/14 27/28/14
f 27/28/14 28/27/14 30/29/15 29/30/15
f 29/30/15 30/29/15 32/31/16 31/32/16
f 31/32/16 32/31/16 2/33/1 1/34/1
o MuzzlePlanes_Plane
v 2.982018 -0.000001 -0.000003
v -2.982018 0.000001 0.000003
v 2.982025 0.000004 6.958928
v -2.982011 0.000006 6.958933
v -0.000001 -2.982018 0.000001
v 0.000001 2.982018 -0.000001
v 0.000006 -2.982012 6.958932
v 0.000008 2.982023 6.958929
vt 0.000000 0.000000
vt 1.000000 0.000000
vt 1.000000 1.000000
vt 0.000000 1.000000
vt 0.000000 0.000000
vt 1.000000 0.000000
vt 1.000000 1.000000
vt 0.000000 1.000000
vn 0.0000 1.0000 -0.0000
vn 1.0000 -0.0000 -0.0000
usemtl (null)
s off
f 33/35/17 34/36/17 36/37/17 35/38/17
f 37/39/18 38/40/18 40/41/18 39/42/18
