# Blender v2.92.0 OBJ File: 'projectile1.blend'
# www.blender.org
mtllib projectile1.mtl
o Cube
v 0.174276 0.174276 -0.250000
v 0.174276 -0.174276 -0.250000
v 0.174276 0.174276 0.250000
v 0.174276 -0.174276 0.250000
v -0.174276 0.174276 -0.250000
v -0.174276 -0.174276 -0.250000
v -0.174276 0.174276 0.250000
v -0.174276 -0.174276 0.250000
v 0.000000 -0.000000 -0.750000
v 0.000000 -0.000000 0.750000
v 0.246464 -0.000000 -0.250000
v -0.246464 -0.000000 -0.250000
v 0.246464 -0.000000 0.250000
v -0.246464 -0.000000 0.250000
v 0.000000 -0.246464 0.250000
v -0.000000 -0.246464 -0.250000
v 0.000000 0.246464 -0.250000
v 0.000000 0.246464 0.250000
vt 0.406946 0.267420
vt 0.501964 0.267420
vt 0.501964 0.736770
vt 0.406946 0.736770
vt 0.825773 0.736770
vt 0.992137 0.736770
vt 0.501971 0.994528
vt 0.700812 0.736770
vt 0.700812 0.267420
vt 0.825773 0.267420
vt 0.992137 0.267420
vt 0.178137 0.267420
vt 0.303100 0.267420
vt 0.303100 0.736770
vt 0.178137 0.736770
vt 0.596865 0.267420
vt 0.501971 0.008071
vt 0.596865 0.736770
vt 0.011952 0.267420
vt 0.011952 0.736770
vn 0.6905 0.6905 -0.2156
vn 0.0000 0.9765 -0.2156
vn 0.0000 0.9765 0.2156
vn 0.6905 0.6905 0.2156
vn -0.6905 -0.6905 0.2156
vn 0.0000 -0.9765 0.2156
vn 0.0000 0.0000 1.0000
vn -0.9765 0.0000 0.2156
vn -0.9765 0.0000 -0.2156
vn -0.6905 -0.6905 -0.2156
vn 0.0000 -0.9765 -0.2156
vn 0.6905 -0.6905 -0.2156
vn 0.9765 0.0000 -0.2156
vn 0.9765 0.0000 0.2156
vn 0.6905 -0.6905 0.2156
vn -0.6905 0.6905 -0.2156
vn 0.0000 0.0000 -1.0000
vn -0.6905 0.6905 0.2156
usemtl Material
s 1
f 1/1/1 17/2/2 18/3/3 3/4/4
f 8/5/5 15/6/6 10/7/7
f 8/5/5 14/8/8 12/9/9 6/10/10
f 6/10/10 16/11/11 15/6/6 8/5/5
f 2/12/12 11/13/13 13/14/14 4/15/15
f 5/16/16 17/2/2 9/17/17
f 3/4/4 18/3/3 10/7/7
f 4/15/15 13/14/14 10/7/7
f 1/1/1 11/13/13 9/17/17
f 6/10/10 12/9/9 9/17/17
f 7/18/18 14/8/8 10/7/7
f 2/12/12 16/19/11 9/17/17
f 12/9/9 14/8/8 7/18/18 5/16/16
f 9/17/17 12/9/9 5/16/16
f 10/7/7 14/8/8 8/5/5
f 10/7/7 13/14/14 3/4/4
f 13/14/14 11/13/13 1/1/1 3/4/4
f 9/17/17 11/13/13 2/12/12
f 9/17/17 17/2/2 1/1/1
f 10/7/7 18/3/3 7/18/18
f 15/20/6 16/19/11 2/12/12 4/15/15
f 18/3/3 17/2/2 5/16/16 7/18/18
f 9/17/17 16/11/11 6/10/10
f 10/7/7 15/20/6 4/15/15
